<svg xmlns="http://www.w3.org/2000/svg" xmlns:xlink="http://www.w3.org/1999/xlink" id="a" data-name="Ebene 1" viewBox="0 0 419.9 432.25"><defs><clipPath id="b"><path d="M12.17,23.56c-4.74,0-8.59,3.85-8.59,8.59V420.09c0,4.74,3.85,8.59,8.59,8.59H400.1c4.74,0,8.59-3.84,8.59-8.59V32.15c0-4.74-3.84-8.59-8.59-8.59H12.17Z" style="fill: none;"></path></clipPath></defs><path d="M12.17,23.56c-4.74,0-8.59,3.85-8.59,8.59V420.09c0,4.74,3.85,8.59,8.59,8.59H400.1c4.74,0,8.59-3.84,8.59-8.59V32.15c0-4.74-3.84-8.59-8.59-8.59H12.17Z" style="fill: #e30613;"></path><g style="clip-path: url(#b);"><polygon points="196.71 191.32 205.64 203.03 217.09 193.83 208.16 182.11 196.71 191.32 196.71 191.32" style="fill: #fff;"></polygon><polygon points="202.57 148.65 211.51 160.36 222.95 151.16 214.02 139.44 202.57 148.65 202.57 148.65" style="fill: #fff;"></polygon><polygon points="248.08 131.08 257.01 142.79 268.45 133.59 259.52 121.87 248.08 131.08 248.08 131.08" style="fill: #fff;"></polygon><polygon points="205.09 108.77 214.02 120.48 225.74 111.28 216.53 99.56 205.09 108.77 205.09 108.77" style="fill: #fff;"></polygon><polygon points="232.72 162.31 241.66 174.03 253.1 164.82 244.17 153.11 232.72 162.31 232.72 162.31" style="fill: #fff;"></polygon><polygon points="275.43 71.4 266.5 59.68 255.06 68.89 263.99 80.6 275.43 71.4 275.43 71.4" style="fill: #fff;"></polygon><polygon points="272.08 149.76 281.02 161.48 292.46 152.27 283.53 140.56 272.08 149.76 272.08 149.76" style="fill: #fff;"></polygon><polygon points="159.86 163.99 168.79 175.7 180.24 166.5 171.31 154.78 159.86 163.99 159.86 163.99" style="fill: #fff;"></polygon><polygon points="257.85 104.58 248.91 92.87 237.47 102.07 246.4 113.79 257.85 104.58 257.85 104.58" style="fill: #fff;"></polygon><polygon points="156.51 204.42 165.44 216.14 176.89 206.93 167.96 195.22 156.51 204.42 156.51 204.42" style="fill: #fff;"></polygon><polygon points="288.83 117.41 297.77 129.4 309.21 120.2 300.28 108.49 288.83 117.41 288.83 117.41" style="fill: #fff;"></polygon><polygon points="325.1 51.38 314.09 59.96 322.77 71.6 333.78 62.75 325.1 51.38 325.1 51.38" style="fill: #fff;"></polygon><path d="M374.3,0l5.83,7.65-4.35,3.5-8.5-11.15h-4.49l1.28,1.68-5.88,4.72-4.89-6.41h-10.84l-4.65,3.62,8.78,11.79-7.75,6.23-8.85-11.6-11.72,8.92,9.03,11.75-10.7,8.61,8.67,11.37,10.4-8.36,.21,.26,8.73,11.45-10.84,8.71,8.93,11.71,10.84-8.71,.05,.07h0l.02,.03,.14,.19h0s8.71,11.42,8.71,11.42l-10.84,8.71-8.93-11.71-11.45,9.2-8.67-11.37-11.02,8.86,8.93,11.71,11.45-9.2,8.93,11.71,11.45-9.2,8.93,11.71,11.45-9.2-8.88-11.65,9.14-7.35,.04,.04,8.92,11.7,11.44-9.2-8.91-11.68,6.79-5.46,8.82,11.57,11.45-9.2-8.81-11.55,4.66-3.74,8.9,11.67,3.63-2.92V11l-3.82-7.73-6.36-3.26h-35.42Zm-26.4,14.14l6.83-5.49m-18.38,33.25l-.05-.07h0s-8.75-11.47-8.75-11.47l8.83-7.1,8.8,11.54-8.83,7.1h0Zm17.86,23.43l-.05-.07h0s-8.88-11.65-8.88-11.65l9.14-7.35,.26,.35h0s8.67,11.36,8.67,11.36l-9.14,7.35h0Zm1.93-20.4l-.03-.03-8.86-11.62,7.95-6.24,8.73,11.44,.09,.12-7.87,6.33h0Zm16.17-31.53l8.67,11.37-5.44,4.37-8.84-11.23,5.61-4.51h0Zm.36,18.23l8.85,11.6h0s.09,.11,.09,.11l-6.85,5.38-8.87-11.63h0s-.07-.09-.07-.09l6.85-5.38h0Zm1.33,36.73l-.02-.03-8.91-11.68,7.88-6.34,9.11,11.58-8.05,6.47h0ZM387.2,1.81l8.7,11.42-3.39,2.73-8.61-11.56,3.3-2.59h0Zm-2.89,20.89l4.58-3.57,8.71,11.42-4.66,3.74-8.64-11.6h0Zm9.09,29.86l-8.57-11.23h0s-.33-.44-.33-.44l5.64-4.39,.02,.04,8.81,11.55-5.57,4.48h0Zm9.3-44.54l8.8,11.4-2.45,1.92-8.71-11.42,2.36-1.9h0Zm7.81,30.98l-8.8-11.54,3.4-2.73,9.01,11.37-3.61,2.9h0Z" style="fill: #fff;"></path><polygon points="299.16 90.36 290.23 78.37 278.78 87.57 287.72 99.28 299.16 90.36 299.16 90.36" style="fill: #fff;"></polygon><polygon points="296.23 36.53 305.16 48.25 316.61 39.32 307.67 27.33 296.23 36.53 296.23 36.53" style="fill: #fff;"></polygon><polygon points="289.95 59.96 298.88 71.67 310.33 62.47 301.4 50.76 289.95 59.96 289.95 59.96" style="fill: #fff;"></polygon><polygon points="321.78 110.16 330.71 121.87 342.15 112.67 333.22 100.96 321.78 110.16 321.78 110.16" style="fill: #fff;"></polygon></g><path d="M160.86,271.99c7.12-40.37-16.26-40.53-49.16-40.53-37.31,0-61.49,6.28-68.9,48.34l-5.8,32.9c-7.27,41.21,11.89,48.03,51.91,48.03,45.45,0,57.69-7.83,65.26-50.74l3.92-22.22h-57.84l-4.16,23.58h23.41c-3.11,17.64-8.38,21.54-25.68,21.54s-25.02-2.37-21.04-24.93l3.65-20.69c3.96-20.52,5.95-27.99,30.38-27.99,10.18,0,21.23-.17,19.64,12.72h34.43Zm61.22-11.7h57.83l4.91-27.82h-91.76l-22.43,127.2h92.94l4.9-27.82h-59.02l4.37-24.76h54.27l4.16-23.58h-54.27l4.1-23.24h0Zm126.82-27.82h-33.92l-22.43,127.2h87.01l5.2-29.51h-53.09l17.23-97.69h0Z" style="fill: #fff;"></path><path d="M46.51,407.54l.71-2.97h-15.4l2.02-8.79h11.56l.67-2.97h-11.56l1.94-8.43h14.76l.71-2.97h-17.93l-6.06,26.13h18.56Zm6.89,0l9.54-10.96,4.47,10.96h3.32l-5.46-13.3,11.16-12.83h-3.68l-8.71,10.09-4-10.09h-3.48l5.11,12.39-12.11,13.74h3.84Zm24.59,0l5.38-23.16h4.87c1.77,0,3.1,.4,4,1.21,.9,.8,1.35,1.87,1.35,3.19,0,1.03-.23,1.98-.69,2.85-.46,.87-1.15,1.57-2.06,2.1-.91,.53-2.07,.79-3.46,.79h-7.68l-.67,2.97h7.6c2.06,0,3.86-.38,5.4-1.15,1.54-.76,2.74-1.82,3.58-3.17,.84-1.35,1.27-2.88,1.27-4.59,0-2.14-.75-3.87-2.24-5.18-1.49-1.32-3.54-1.98-6.16-1.98h-7.6l-6.06,26.13h3.17Zm22.8,0l5.38-23.16h5.42c1.56,0,2.78,.34,3.68,1.01,.9,.67,1.35,1.67,1.35,2.99,0,1.03-.22,1.97-.67,2.83-.45,.86-1.13,1.54-2.06,2.06-.92,.51-2.08,.77-3.48,.77h-7.12l-.67,2.97h8.11l1.98-.28c1.27-.24,2.45-.72,3.54-1.44,1.1-.73,1.98-1.67,2.65-2.83,.67-1.16,1.01-2.48,1.01-3.96,0-2.22-.69-3.95-2.08-5.21-1.39-1.25-3.25-1.88-5.6-1.88h-8.55l-6.06,26.13h3.17Zm16.98,0l-4.71-11.52-3.21,.4,4.47,11.12h3.44Zm22.54,0l.71-2.97h-15.4l2.02-8.79h11.56l.67-2.97h-11.56l1.94-8.43h14.76l.71-2.97h-17.93l-6.06,26.13h18.57Zm20.81-.67c1.43-.66,2.57-1.6,3.42-2.81,.86-1.21,1.29-2.64,1.29-4.28,0-1.48-.46-2.72-1.39-3.74-.92-1.02-2.35-1.8-4.28-2.36l-4.71-1.34c-1.16-.34-2.09-.88-2.77-1.6-.69-.72-1.03-1.54-1.03-2.43,0-.79,.22-1.52,.65-2.18,.43-.66,1.1-1.19,2-1.58,.9-.4,2.01-.59,3.33-.59,1.03,0,2.02,.13,2.97,.4,.95,.26,1.79,.75,2.53,1.46,.74,.71,1.28,1.76,1.62,3.13l3.17-1.54c-.74-2.16-1.97-3.77-3.68-4.83-1.72-1.06-3.85-1.58-6.41-1.58-1.93,0-3.6,.35-5.01,1.05-1.41,.7-2.51,1.64-3.28,2.83-.78,1.19-1.17,2.51-1.17,3.96,0,1.03,.24,1.98,.73,2.85,.49,.87,1.2,1.62,2.14,2.26,.94,.63,2.08,1.15,3.42,1.54l4.23,1.19c1.19,.34,2.09,.79,2.71,1.35,.62,.55,.93,1.32,.93,2.3,0,.79-.22,1.54-.65,2.24-.43,.7-1.09,1.27-1.96,1.7-.87,.43-1.95,.65-3.25,.65-1.37,0-2.65-.2-3.84-.61-1.19-.41-2.22-1.08-3.09-2.02-.87-.94-1.53-2.17-1.98-3.7l-3.17,1.58c.58,1.69,1.42,3.1,2.51,4.24,1.09,1.13,2.43,2,4,2.59,1.57,.59,3.33,.89,5.29,.89,1.72,0,3.29-.33,4.71-.99h0Zm24.72,0c1.43-.66,2.57-1.6,3.42-2.81,.86-1.21,1.29-2.64,1.29-4.28,0-1.48-.46-2.72-1.39-3.74-.92-1.02-2.35-1.8-4.27-2.36l-4.71-1.34c-1.16-.34-2.09-.88-2.77-1.6-.69-.72-1.03-1.54-1.03-2.43,0-.79,.22-1.52,.65-2.18,.44-.66,1.1-1.19,2-1.58,.9-.4,2.01-.59,3.32-.59,1.03,0,2.02,.13,2.97,.4,.95,.26,1.79,.75,2.53,1.46,.74,.71,1.28,1.76,1.62,3.13l3.17-1.54c-.74-2.16-1.97-3.77-3.68-4.83-1.72-1.06-3.85-1.58-6.41-1.58-1.93,0-3.6,.35-5.01,1.05-1.41,.7-2.51,1.64-3.29,2.83-.78,1.19-1.17,2.51-1.17,3.96,0,1.03,.24,1.98,.73,2.85,.49,.87,1.2,1.62,2.14,2.26,.94,.63,2.08,1.15,3.42,1.54l4.24,1.19c1.19,.34,2.09,.79,2.71,1.35,.62,.55,.93,1.32,.93,2.3,0,.79-.22,1.54-.65,2.24-.44,.7-1.09,1.27-1.96,1.7-.87,.43-1.95,.65-3.24,.65-1.37,0-2.65-.2-3.84-.61-1.19-.41-2.22-1.08-3.09-2.02-.87-.94-1.53-2.17-1.98-3.7l-3.17,1.58c.58,1.69,1.42,3.1,2.51,4.24,1.1,1.13,2.43,2,4,2.59,1.57,.59,3.33,.89,5.29,.89,1.71,0,3.29-.33,4.71-.99h0Zm36.7-25.45h-3.17l-6.06,26.13h17.81l.71-2.97h-14.69l5.38-23.16h0Zm29.18,25.26c1.65-.84,3.03-1.99,4.16-3.44,1.12-1.45,1.97-3.1,2.53-4.95,.57-1.85,.85-3.77,.85-5.78,0-2.45-.49-4.53-1.46-6.24-.98-1.7-2.28-3-3.9-3.9-1.62-.9-3.41-1.34-5.36-1.34-2.16,0-4.08,.42-5.76,1.27-1.68,.85-3.07,1.99-4.2,3.42-1.12,1.44-1.97,3.08-2.55,4.93-.58,1.85-.87,3.79-.87,5.82,0,2.45,.49,4.54,1.48,6.26,.99,1.71,2.31,3.01,3.96,3.9,1.65,.88,3.45,1.33,5.4,1.33,2.16,0,4.07-.42,5.72-1.27h0Zm-9.5-2.77c-1.17-.69-2.09-1.68-2.75-2.97-.66-1.29-.99-2.85-.99-4.67,0-1.56,.2-3.06,.61-4.51,.41-1.45,1.02-2.76,1.84-3.92,.82-1.16,1.83-2.08,3.03-2.77,1.2-.69,2.59-1.03,4.18-1.03s2.92,.34,4.08,1.03c1.16,.69,2.07,1.68,2.73,2.97,.66,1.29,.99,2.85,.99,4.67,0,1.53-.2,3.02-.61,4.47-.41,1.45-1.02,2.76-1.82,3.94-.8,1.18-1.8,2.11-2.99,2.79-1.19,.69-2.57,1.03-4.16,1.03s-2.96-.34-4.14-1.03h0Zm34.84,3.37c1.03-.4,1.93-.98,2.69-1.74,.76-.76,1.4-1.69,1.9-2.77l-.36-.43-1.07,5.23h2.49l3.17-12.98h-10.97l-.67,2.97h8.16l-.28,1.19c-.29,1.21-.78,2.28-1.47,3.21-.69,.92-1.57,1.64-2.65,2.16-1.08,.51-2.36,.77-3.84,.77s-2.86-.34-4-1.01c-1.14-.67-2.01-1.65-2.63-2.93-.62-1.28-.93-2.82-.93-4.61,0-1.53,.22-3.03,.65-4.49,.44-1.46,1.08-2.79,1.94-3.98,.86-1.19,1.91-2.13,3.17-2.83,1.25-.7,2.7-1.05,4.33-1.05,1.79,0,3.32,.4,4.57,1.19,1.25,.79,2.12,2.12,2.59,4l3.21-1.11c-.47-1.74-1.21-3.12-2.22-4.14-1-1.02-2.18-1.75-3.54-2.2-1.36-.45-2.83-.67-4.41-.67-2.22,0-4.17,.43-5.86,1.29-1.69,.86-3.11,2.03-4.25,3.5-1.15,1.48-2.02,3.15-2.61,5.01-.59,1.86-.89,3.81-.89,5.84,0,2.35,.47,4.36,1.4,6.04,.94,1.68,2.18,2.96,3.74,3.84,1.56,.88,3.26,1.33,5.11,1.33,1.32,0,2.49-.2,3.52-.59h0Zm17.9-25.85l-6.06,26.13h3.17l6.06-26.13h-3.17Zm20.33,25.45c1.43-.66,2.57-1.6,3.42-2.81,.86-1.21,1.29-2.64,1.29-4.28,0-1.48-.46-2.72-1.39-3.74-.92-1.02-2.35-1.8-4.28-2.36l-4.71-1.34c-1.16-.34-2.08-.88-2.77-1.6-.69-.72-1.03-1.54-1.03-2.43,0-.79,.22-1.52,.65-2.18,.44-.66,1.1-1.19,2-1.58,.9-.4,2.01-.59,3.32-.59,1.03,0,2.02,.13,2.97,.4,.95,.26,1.79,.75,2.53,1.46,.74,.71,1.28,1.76,1.62,3.13l3.17-1.54c-.74-2.16-1.97-3.77-3.68-4.83-1.71-1.06-3.85-1.58-6.41-1.58-1.93,0-3.6,.35-5.01,1.05-1.41,.7-2.51,1.64-3.29,2.83-.78,1.19-1.17,2.51-1.17,3.96,0,1.03,.24,1.98,.73,2.85,.49,.87,1.2,1.62,2.14,2.26,.94,.63,2.08,1.15,3.42,1.54l4.24,1.19c1.19,.34,2.09,.79,2.71,1.35,.62,.55,.93,1.32,.93,2.3,0,.79-.22,1.54-.65,2.24-.43,.7-1.09,1.27-1.96,1.7-.87,.43-1.95,.65-3.25,.65-1.37,0-2.65-.2-3.84-.61-1.19-.41-2.22-1.08-3.09-2.02-.87-.94-1.53-2.17-1.98-3.7l-3.17,1.58c.58,1.69,1.42,3.1,2.51,4.24,1.1,1.13,2.43,2,4,2.59,1.57,.59,3.33,.89,5.29,.89,1.71,0,3.29-.33,4.71-.99h0Zm10.7-25.45l-.71,2.97h8.98l-5.34,23.16h3.17l5.34-23.16h8.83l.71-2.97h-20.98Zm25.21,0l-6.06,26.13h3.17l6.06-26.13h-3.17Zm7.47,26.13l1.86-8,5.94-5.11,5.5,13.1h3.48l-6.53-15.24,12.47-10.89h-4.43l-15.32,13.3,3.09-13.3h-3.17l-6.06,26.13h3.17Z" style="fill: #fff;"></path><path d="M8.59,19.98C3.85,19.98,0,23.83,0,28.57V423.67c0,4.74,3.85,8.59,8.59,8.59H403.68c4.74,0,8.59-3.85,8.59-8.59V28.57c0-4.74-3.85-8.59-8.59-8.59H8.59Zm313.08,3.78h78.24c4.74,0,8.58,3.84,8.58,8.58V419.89c0,4.74-3.84,8.58-8.58,8.58H12.36c-4.74,0-8.58-3.84-8.58-8.58V32.35c0-4.74,3.84-8.58,8.58-8.58H321.67Z" style="fill: #fff;"></path></svg>